<svg width="319" height="111" viewBox="0 0 319 111" fill="none" xmlns="http://www.w3.org/2000/svg">
<path d="M18.8116 0.409615H26.3009L31.0186 14.1609L35.7362 0.409615H43.2845L36.149 19.3103L41.4564 32.5935L53.3095 0.29258H62.1551L45.1126 41.839H38.272L31.0186 24.4012L23.7652 41.839H16.9246L0 0.29258H8.72766L20.6397 32.5935L25.8292 19.3103L18.8116 0.409615Z" fill="white"/>
<path d="M112.243 42.1316C109.176 42.1316 106.385 41.5465 103.869 40.3761C101.392 39.1668 99.2496 37.5869 97.4412 35.6363C95.6721 33.6468 94.2961 31.3841 93.3132 28.8484C92.3304 26.3128 91.839 23.7185 91.839 21.0658C91.839 18.296 92.3501 15.6433 93.3722 13.1076C94.4337 10.5719 95.8687 8.32879 97.6771 6.37826C99.5248 4.42772 101.707 2.8868 104.223 1.75548C106.739 0.58516 109.471 0 112.42 0C115.447 0 118.199 0.624172 120.676 1.87252C123.192 3.08185 125.334 4.68129 127.103 6.67084C128.873 8.66039 130.249 10.923 131.231 13.4587C132.214 15.9944 132.706 18.5691 132.706 21.1828C132.706 23.9526 132.195 26.6053 131.172 29.141C130.15 31.6377 128.735 33.8613 126.927 35.8119C125.118 37.7234 122.956 39.2643 120.44 40.4346C117.924 41.566 115.191 42.1316 112.243 42.1316ZM100.095 21.0658C100.095 22.8603 100.37 24.5963 100.92 26.2737C101.471 27.9512 102.257 29.4336 103.279 30.721C104.341 32.0083 105.618 33.0421 107.112 33.8223C108.646 34.6025 110.375 34.9926 112.302 34.9926C114.268 34.9926 115.997 34.6025 117.491 33.8223C119.024 33.0031 120.302 31.9303 121.324 30.6039C122.386 29.2776 123.172 27.7952 123.683 26.1567C124.234 24.4792 124.509 22.7823 124.509 21.0658C124.509 19.2713 124.214 17.5353 123.624 15.8579C123.074 14.1804 122.268 12.698 121.206 11.4106C120.184 10.1233 118.907 9.10901 117.373 8.36781C115.879 7.58759 114.189 7.19748 112.302 7.19748C110.336 7.19748 108.587 7.6071 107.053 8.42632C105.52 9.20654 104.242 10.2598 103.22 11.5862C102.198 12.8735 101.412 14.356 100.862 16.0334C100.35 17.6719 100.095 19.3493 100.095 21.0658Z" fill="white"/>
<path d="M186.302 42.1316C183.235 42.1316 180.444 41.5465 177.928 40.3761C175.451 39.1668 173.309 37.5869 171.5 35.6363C169.731 33.6468 168.355 31.3841 167.372 28.8484C166.389 26.3128 165.898 23.7185 165.898 21.0658C165.898 18.296 166.409 15.6433 167.431 13.1076C168.493 10.5719 169.928 8.32879 171.736 6.37826C173.584 4.42772 175.766 2.8868 178.282 1.75548C180.798 0.58516 183.53 0 186.479 0C189.506 0 192.258 0.624172 194.735 1.87252C197.251 3.08185 199.393 4.68129 201.162 6.67084C202.931 8.66039 204.307 10.923 205.29 13.4587C206.273 15.9944 206.765 18.5691 206.765 21.1828C206.765 23.9526 206.253 26.6053 205.231 29.141C204.209 31.6377 202.794 33.8613 200.985 35.8119C199.177 37.7234 197.015 39.2643 194.499 40.4346C191.983 41.566 189.25 42.1316 186.302 42.1316ZM174.154 21.0658C174.154 22.8603 174.429 24.5963 174.979 26.2737C175.53 27.9512 176.316 29.4336 177.338 30.721C178.4 32.0083 179.677 33.0421 181.171 33.8223C182.704 34.6025 184.434 34.9926 186.361 34.9926C188.326 34.9926 190.056 34.6025 191.55 33.8223C193.083 33.0031 194.361 31.9303 195.383 30.6039C196.445 29.2776 197.231 27.7952 197.742 26.1567C198.292 24.4792 198.568 22.7823 198.568 21.0658C198.568 19.2713 198.273 17.5353 197.683 15.8579C197.133 14.1804 196.327 12.698 195.265 11.4106C194.243 10.1233 192.965 9.10901 191.432 8.36781C189.938 7.58759 188.248 7.19748 186.361 7.19748C184.395 7.19748 182.646 7.6071 181.112 8.42632C179.579 9.20654 178.301 10.2598 177.279 11.5862C176.257 12.8735 175.471 14.356 174.92 16.0334C174.409 17.6719 174.154 19.3493 174.154 21.0658Z" fill="white"/>
<path d="M242.492 41.839V0.29258H257.707C261.127 0.29258 264.115 0.838731 266.67 1.93103C269.265 3.02333 271.427 4.50574 273.157 6.37826C274.887 8.25077 276.184 10.4549 277.049 12.9906C277.914 15.4873 278.347 18.1595 278.347 21.0073C278.347 24.1672 277.855 27.0345 276.872 29.6092C275.929 32.1449 274.553 34.3295 272.744 36.163C270.936 37.9575 268.754 39.3618 266.199 40.3761C263.683 41.3514 260.852 41.839 257.707 41.839H242.492ZM270.15 21.0073C270.15 19.0177 269.875 17.1842 269.324 15.5068C268.774 13.8293 267.968 12.3859 266.906 11.1766C265.845 9.96725 264.528 9.03099 262.955 8.36781C261.422 7.70462 259.673 7.37303 257.707 7.37303H250.63V34.7586H257.707C259.712 34.7586 261.481 34.4075 263.014 33.7053C264.587 33.0031 265.884 32.0473 266.906 30.838C267.968 29.5897 268.774 28.1268 269.324 26.4493C269.875 24.7718 270.15 22.9578 270.15 21.0073Z" fill="white"/>
<path d="M34.8945 79.8694C34.6193 79.5963 34.1082 79.2257 33.3613 78.7576C32.6536 78.2895 31.7691 77.8409 30.7076 77.4117C29.6854 76.9436 28.565 76.5535 27.3463 76.2414C26.1275 75.9293 24.8892 75.7733 23.6311 75.7733C21.3902 75.7733 19.7194 76.1829 18.6186 77.0021C17.5178 77.8214 16.9674 78.9722 16.9674 80.4546C16.9674 81.3128 17.164 82.0345 17.5571 82.6197C17.9896 83.1658 18.5989 83.6535 19.3852 84.0826C20.1715 84.5117 21.1543 84.9018 22.3338 85.2529C23.5525 85.604 24.9481 85.9746 26.5207 86.3647C28.565 86.9109 30.4127 87.496 32.0639 88.1202C33.7544 88.7444 35.1697 89.5246 36.3098 90.4608C37.4892 91.3971 38.3934 92.5284 39.0225 93.8548C39.6515 95.1421 39.966 96.7416 39.966 98.6531C39.966 100.877 39.5335 102.788 38.6686 104.388C37.843 105.948 36.7029 107.216 35.2483 108.191C33.833 109.167 32.1819 109.888 30.2948 110.356C28.4471 110.785 26.501 111 24.4567 111C21.3116 111 18.2058 110.532 15.1393 109.596C12.0729 108.659 9.3209 107.333 6.88344 105.617L10.4807 98.6531C10.8345 99.0042 11.4635 99.4723 12.3677 100.057C13.3112 100.604 14.412 101.169 15.6701 101.754C16.9281 102.301 18.3238 102.769 19.857 103.159C21.3902 103.549 22.9628 103.744 24.5746 103.744C29.0564 103.744 31.2973 102.32 31.2973 99.4723C31.2973 98.5751 31.0418 97.8144 30.5307 97.1902C30.0196 96.566 29.2923 96.0199 28.3488 95.5517C27.4052 95.0836 26.2651 94.6545 24.9285 94.2644C23.5918 93.8743 22.0979 93.4452 20.4467 92.977C18.4417 92.4309 16.6922 91.8457 15.1983 91.2215C13.7437 90.5584 12.525 89.7977 11.5421 88.9394C10.5593 88.0422 9.81232 87.0279 9.30124 85.8966C8.82947 84.7263 8.59359 83.3414 8.59359 81.7419C8.59359 79.6354 8.98673 77.7628 9.77301 76.1244C10.5593 74.4859 11.6404 73.1206 13.0164 72.0283C14.4317 70.936 16.0632 70.1167 17.911 69.5706C19.7587 68.9854 21.7441 68.6928 23.867 68.6928C26.8155 68.6928 29.5282 69.161 32.005 70.0972C34.4817 70.9945 36.644 72.0673 38.4917 73.3156L34.8945 79.8694Z" fill="white"/>
<path d="M106.626 76.0659H93.24V110.532H85.161V76.0659H71.7747V68.9854H106.626V76.0659Z" fill="white"/>
<path d="M157.219 110.824C154.153 110.824 151.362 110.239 148.846 109.069C146.369 107.86 144.226 106.28 142.418 104.329C140.649 102.34 139.273 100.077 138.29 97.5413C137.307 95.0056 136.816 92.4114 136.816 89.7586C136.816 86.9889 137.327 84.3362 138.349 81.8005C139.41 79.2648 140.845 77.0216 142.654 75.0711C144.501 73.1206 146.683 71.5796 149.199 70.4483C151.716 69.278 154.448 68.6928 157.396 68.6928C160.424 68.6928 163.176 69.317 165.652 70.5654C168.168 71.7747 170.311 73.3741 172.08 75.3637C173.849 77.3532 175.225 79.6159 176.208 82.1516C177.191 84.6873 177.682 87.262 177.682 89.8757C177.682 92.6454 177.171 95.2982 176.149 97.8339C175.127 100.331 173.712 102.554 171.903 104.505C170.095 106.416 167.933 107.957 165.416 109.127C162.9 110.259 160.168 110.824 157.219 110.824ZM145.072 89.7586C145.072 91.5531 145.347 93.2891 145.897 94.9666C146.448 96.6441 147.234 98.1265 148.256 99.4138C149.317 100.701 150.595 101.735 152.089 102.515C153.622 103.295 155.352 103.685 157.278 103.685C159.244 103.685 160.974 103.295 162.468 102.515C164.001 101.696 165.279 100.623 166.301 99.2968C167.362 97.9704 168.149 96.488 168.66 94.8495C169.21 93.1721 169.485 91.4751 169.485 89.7586C169.485 87.9641 169.191 86.2282 168.601 84.5507C168.05 82.8732 167.245 81.3908 166.183 80.1035C165.161 78.8161 163.883 77.8018 162.35 77.0606C160.856 76.2804 159.166 75.8903 157.278 75.8903C155.313 75.8903 153.563 76.2999 152.03 77.1192C150.497 77.8994 149.219 78.9527 148.197 80.279C147.175 81.5664 146.389 83.0488 145.838 84.7263C145.327 86.3647 145.072 88.0422 145.072 89.7586Z" fill="white"/>
<path d="M210.874 89.4661C210.874 86.9304 211.327 84.4337 212.231 81.976C213.174 79.4793 214.531 77.2557 216.3 75.3052C218.069 73.3546 220.231 71.7747 222.787 70.5654C225.342 69.356 228.251 68.7514 231.514 68.7514C235.367 68.7514 238.689 69.5901 241.48 71.2676C244.311 72.945 246.414 75.1296 247.79 77.8214L241.539 82.093C240.989 80.9227 240.321 79.9474 239.534 79.1672C238.748 78.348 237.903 77.7043 236.999 77.2362C236.094 76.7681 235.151 76.4365 234.168 76.2414C233.185 76.0074 232.222 75.8903 231.278 75.8903C229.234 75.8903 227.445 76.2999 225.912 77.1192C224.418 77.9384 223.16 79.0112 222.138 80.3376C221.155 81.6249 220.408 83.1073 219.897 84.7848C219.386 86.4232 219.13 88.0617 219.13 89.7001C219.13 91.5336 219.425 93.3086 220.015 95.0251C220.605 96.7026 221.43 98.185 222.492 99.4723C223.593 100.76 224.89 101.793 226.384 102.574C227.917 103.354 229.588 103.744 231.396 103.744C232.34 103.744 233.323 103.627 234.345 103.393C235.367 103.159 236.33 102.788 237.234 102.281C238.178 101.774 239.043 101.13 239.829 100.35C240.615 99.5308 241.244 98.5556 241.716 97.4243L248.38 101.228C247.712 102.788 246.748 104.173 245.49 105.382C244.272 106.553 242.876 107.548 241.303 108.367C239.77 109.186 238.119 109.81 236.35 110.239C234.581 110.668 232.851 110.883 231.16 110.883C228.173 110.883 225.44 110.259 222.964 109.01C220.487 107.762 218.344 106.143 216.536 104.154C214.767 102.125 213.371 99.8429 212.349 97.3072C211.366 94.7325 210.874 92.1188 210.874 89.4661Z" fill="white"/>
<path d="M283.323 110.532V69.0439H291.461V88.7639L309.034 68.9854H317.997L301.957 87.418L319 110.532H309.86L296.827 92.5674L291.461 98.1265V110.532H283.323Z" fill="white"/>
<rect x="92" y="18" width="115" height="8" rx="4" fill="#BC9A44"/>
</svg>
